<?xml version="1.0" standalone="no"?><!DOCTYPE svg PUBLIC "-//W3C//DTD SVG 1.1//EN" "http://www.w3.org/Graphics/SVG/1.1/DTD/svg11.dtd"><svg t="1668416161474" class="icon" viewBox="0 0 1024 1024" version="1.1" xmlns="http://www.w3.org/2000/svg" p-id="8315" xmlns:xlink="http://www.w3.org/1999/xlink" width="200" height="200"><path d="M853.333333 1024h-682.666666C75.093333 1024 0 948.906667 0 853.333333v-682.666666C0 75.093333 75.093333 0 170.666667 0h682.666666C948.906667 0 1024 75.093333 1024 170.666667v682.666666c0 95.573333-75.093333 170.666667-170.666667 170.666667zM955.733333 170.666667c0-54.613333-47.786667-102.4-102.4-102.4h-682.666666C116.053333 68.266667 68.266667 116.053333 68.266667 170.666667v682.666666c0 54.613333 47.786667 102.4 102.4 102.4h682.666666c54.613333 0 102.4-47.786667 102.4-102.4v-682.666666z" p-id="8316" fill="#707070"></path><path d="M716.8 887.466667h-409.6c-20.48 0-34.133333-13.653333-34.133333-34.133334s13.653333-34.133333 34.133333-34.133333h409.6c20.48 0 34.133333 13.653333 34.133333 34.133333s-13.653333 34.133333-34.133333 34.133334zM539.306667 730.453333c-13.653333 13.653333-34.133333 13.653333-47.786667 0L293.546667 539.306667c-13.653333-13.653333-13.653333-34.133333 0-47.786667 13.653333-13.653333 34.133333-13.653333 47.786666-6.826667l136.533334 136.533334V170.666667c0-20.48 13.653333-34.133333 34.133333-34.133334s34.133333 13.653333 34.133333 34.133334v450.56l136.533334-136.533334c13.653333-13.653333 34.133333-13.653333 47.786666 0s13.653333 34.133333 0 47.786667l-191.146666 197.973333z" p-id="8317" fill="#707070"></path></svg>