<?xml version="1.0" standalone="no"?><!DOCTYPE svg PUBLIC "-//W3C//DTD SVG 1.1//EN" "http://www.w3.org/Graphics/SVG/1.1/DTD/svg11.dtd"><svg t="1671956488290" class="icon" viewBox="0 0 1024 1024" version="1.1" xmlns="http://www.w3.org/2000/svg" p-id="1431" xmlns:xlink="http://www.w3.org/1999/xlink" width="200" height="200"><path d="M721.28 305.578667l-327.466667 328.533333-85.418666-149.504a35.925333 35.925333 0 0 0-49.066667-13.397333 35.925333 35.925333 0 0 0-13.44 49.066666l108.8 190.506667a36.053333 36.053333 0 0 0 58.026667 6.4l359.466666-360.576a36.010667 36.010667 0 0 0-0.085333-50.901333 35.712 35.712 0 0 0-50.773333-0.128zM512 0C229.205333 0 0 229.205333 0 512s229.205333 512 512 512 512-229.205333 512-512S794.794667 0 512 0z m311.082667 823.082667a437.717333 437.717333 0 0 1-139.904 94.293333c-54.186667 23.04-111.786667 34.602667-171.178667 34.602667-59.392 0-116.992-11.562667-171.221333-34.474667a440.448 440.448 0 0 1-139.861334-94.293333 437.717333 437.717333 0 0 1-94.293333-139.946667A436.608 436.608 0 0 1 71.936 512c0-59.392 11.605333-116.992 34.56-171.221333a440.448 440.448 0 0 1 94.293333-139.861334 437.717333 437.717333 0 0 1 139.861334-94.293333c54.314667-23.04 111.914667-34.645333 171.306666-34.645333 59.392 0 116.992 11.605333 171.178667 34.56 52.437333 22.186667 99.413333 53.845333 139.946667 94.293333 40.362667 40.362667 72.192 87.466667 94.293333 139.861333 22.997333 54.314667 34.56 111.914667 34.56 171.306667a437.461333 437.461333 0 0 1-128.853333 311.082667z" fill="#707070" p-id="1432"></path></svg>