<?xml version="1.0" standalone="no"?><!DOCTYPE svg PUBLIC "-//W3C//DTD SVG 1.1//EN" "http://www.w3.org/Graphics/SVG/1.1/DTD/svg11.dtd"><svg t="1672909022781" class="icon" viewBox="0 0 1024 1024" version="1.1" xmlns="http://www.w3.org/2000/svg" p-id="6110" xmlns:xlink="http://www.w3.org/1999/xlink" width="200" height="200"><path d="M73.142857 73.142857h73.142857v877.714286H73.142857z" fill="#707070" p-id="6111"></path><path d="M73.142857 950.857143v-73.142857h877.714286v73.142857z" fill="#707070" p-id="6112"></path><path d="M621.714286 402.285714m-109.714286 0a109.714286 109.714286 0 1 0 219.428571 0 109.714286 109.714286 0 1 0-219.428571 0Z" fill="#707070" p-id="6113"></path><path d="M274.285714 384m-54.857143 0a54.857143 54.857143 0 1 0 109.714286 0 54.857143 54.857143 0 1 0-109.714286 0Z" fill="#707070" p-id="6114"></path><path d="M786.285714 603.428571m-54.857143 0a54.857143 54.857143 0 1 0 109.714286 0 54.857143 54.857143 0 1 0-109.714286 0Z" fill="#707070" p-id="6115"></path><path d="M420.571429 603.428571m-91.428572 0a91.428571 91.428571 0 1 0 182.857143 0 91.428571 91.428571 0 1 0-182.857143 0Z" fill="#707070" p-id="6116"></path></svg>