<?xml version="1.0" standalone="no"?><!DOCTYPE svg PUBLIC "-//W3C//DTD SVG 1.1//EN" "http://www.w3.org/Graphics/SVG/1.1/DTD/svg11.dtd"><svg t="1668415105823" class="icon" viewBox="0 0 1024 1024" version="1.1" xmlns="http://www.w3.org/2000/svg" p-id="4027" xmlns:xlink="http://www.w3.org/1999/xlink" width="200" height="200"><path d="M1017.576727 326.493091l-87.226182 151.272727c0.256 3.677091 0.558545 7.284364 0.558546 10.961455h-6.842182a46.545455 46.545455 0 0 1-28.392727 21.736727h-0.395637a46.289455 46.289455 0 0 1-8.424727 1.419636h-2.327273a29.137455 29.137455 0 0 1-11.264-1.210181c-1.466182-0.325818-2.955636-0.512-4.398545-1.000728a46.685091 46.685091 0 0 1-8.634182-3.886545l-161.908363-93.626182a46.801455 46.801455 0 0 1 46.731636-81.082182l70.842182 40.96A325.352727 325.352727 0 0 0 217.949091 349.090909H209.454545a46.545455 46.545455 0 1 1-78.08-34.048 417.861818 417.861818 0 0 1 771.048728 23.994182l34.210909-59.345455a46.754909 46.754909 0 1 1 80.942545 46.801455z m-124.951272 382.464a417.838545 417.838545 0 0 1-771.048728-23.994182l-34.210909 59.345455A46.778182 46.778182 0 1 1 6.4 697.483636l87.249455-151.272727C93.393455 542.557091 93.090909 538.949818 93.090909 535.272727h6.842182a46.545455 46.545455 0 0 1 28.369454-21.736727h0.395637A47.104 47.104 0 0 1 137.146182 512h2.327273a29.137455 29.137455 0 0 1 11.264 1.210182c1.466182 0.325818 2.955636 0.512 4.398545 1.000727a46.685091 46.685091 0 0 1 8.634182 3.886546l161.908363 93.626181a46.801455 46.801455 0 0 1-46.731636 81.082182l-70.842182-40.96A325.352727 325.352727 0 0 0 806.050909 674.909091H814.545455a46.545455 46.545455 0 1 1 78.08 34.048z" p-id="4028" fill="#707070"></path></svg>